<?xml version="1.0" encoding="UTF-8"?>
<svg viewBox="0 0 744.09447 1052.362179" xmlns="http://www.w3.org/2000/svg">
 <path d="m355.57 696.94c-9.9224-0.30892-18.472-0.821-19-1.138s-4.1663-0.85646-8.086-1.1989c-7.237-0.63223-18.017-2.2419-33.373-4.9834-27.587-4.925-72.026-22.007-95-36.517-3.575-2.258-7.4-4.5049-8.5-4.9933-2.5623-1.1375-17.78-11.395-23-15.503-2.2-1.7313-5.951-4.4636-8.3355-6.0719s-7.1096-5.4016-10.5-8.4298c-10.332-9.2274-42.891-42.006-47.489-47.809-8.9941-11.351-32.176-48.955-32.176-52.195 0-0.60517-0.3375-1.1055-0.75-1.1118s-1.6495-1.9188-2.7489-4.25-3.6869-7.3384-5.75-11.127-3.7511-7.626-3.7511-8.5275-0.5919-2.5266-1.3153-3.6115-1.8949-3.9975-2.6033-6.4725-1.6408-4.95-2.0721-5.5c-0.7541-0.96179-5.1182-13.585-8.2971-24-0.8394-2.75-2.0532-7.7-2.6974-11s-1.9996-9.6-3.0119-14-2.1314-10.925-2.4867-14.5-1.389-11.45-2.297-17.5c-2.0641-13.753-2.2136-64.438-0.2183-74 0.6886-3.3 2.0837-11.175 3.1003-17.5 2.6627-16.567 3.6634-20.979 8.053-35.5 7.6389-25.271 10.224-33.202 12.437-38.151 0.7748-1.7331 1.4088-3.455 1.4088-3.8264 0-0.603 15.372-31.817 18.91-38.399 4.2461-7.8986 18.644-28.413 29.874-42.566 18.518-23.338 60.384-59.625 85.716-74.294 9.9758-5.7767 29.788-15.556 38-18.757 3.85-1.5006 8.8-3.5167 11-4.4802 3.6067-1.5796 23.464-8.6269 31-11.002 24.294-7.6568 63.606-13.681 87-13.33 30.526 0.45673 52.967 2.5771 72.5 6.8503 3.575 0.78209 9.8475 2.1163 13.939 2.9649 7.6976 1.5965 10.322 2.3602 25.65 7.4643 4.999 1.6646 9.5668 3.0266 10.151 3.0266s4.9594 1.8176 9.7233 4.0392 10.771 4.8838 13.349 5.9161c20.298 8.1273 59.64 32.497 71.323 44.18 0.9425 0.94246 2.7347 2.2601 3.9828 2.928 7.6265 4.0816 42.367 40.541 54.158 56.837 7.0449 9.737 15.674 22.884 17.021 25.932 0.6484 1.4674 1.732 3.118 2.4078 3.668s2.8566 4.15 4.846 8 4.1607 7.675 4.8252 8.5c1.3582 1.6863 3.8968 6.9649 8.6567 18 1.7792 4.125 3.8498 8.3876 4.6013 9.4725s1.3664 2.7466 1.3664 3.6928 0.8615 3.2086 1.9146 5.0275 2.4818 5.3322 3.175 7.8072c0.6933 2.475 1.5708 4.95 1.9499 5.5 1.1649 1.6896 6.6893 21.463 8.8006 31.5 3.4635 16.465 4.1152 20.25 5.2026 30.219 0.5831 5.3455 1.2945 10.746 1.5809 12s0.6925 12.631 0.9025 25.281c0.2863 17.249-0.0053 25.625-1.1663 33.5-2.1309 14.452-2.0746 14.047-3.8151 27.5-1.9066 14.738-1.9362 14.911-4.4516 26-3.283 14.474-9.126 33.487-12.646 41.151-0.796 1.7331-1.4472 3.4485-1.4472 3.8119s-1.1792 3.2204-2.6203 6.3489-3.7485 8.1631-5.1274 11.188c-6.2559 13.724-13.379 26.733-20.808 38-2.7196 4.125-5.1698 7.725-5.4448 8-0.5861 0.58606-2.994 4.0351-9.0757 13-4.6404 6.8402-4.6781 6.8907-10.463 14-9.0082 11.071-13.334 15.965-19.915 22.531-8.8856 8.8657-18.583 17.469-19.69 17.469-0.4665 0-3.9867 2.8802-7.8226 6.4005-5.8849 5.4006-18.684 14.485-34.034 24.157-4.1793 2.6332-26.655 14.759-36.5 19.693-15.498 7.7659-45.837 18.079-65.5 22.265-0.825 0.17564-3.75 0.84178-6.5 1.4803s-5.9 1.2867-7 1.4404-3.575 0.53818-5.5 0.85436c-4.0812 0.67035-17.881 2.3789-26.5 3.281-15.882 1.6623-22.327 1.888-39.041 1.3677zm14.318-6.495c1.2224-0.85619 2.2226-2.2037 2.2226-2.9946 0-1.1147 0.8428-1.2864 3.75-0.76385 5.089 0.91468 9.1821 0.61635 10.88-0.79303 1.1718-0.97256 0.6659-1.8695-2.979-5.2817-4.7783-4.4732-9.7415-11.394-15.475-21.58-3.149-5.594-3.7205-6.1719-3.9853-4.0304-0.1701 1.375-1.1826 4.4076-2.25 6.7391s-1.9408 4.6592-1.9408 5.1727c0 1.8073-9.2248 11.043-14.581 14.598-2.9804 1.9783-5.4188 3.9703-5.4188 4.4267 0 2.0015 10.719 2.819 13.993 1.0671 1.4877-0.79621 2.4624-0.39487 4.8573 2 3.3785 3.3785 7.4023 3.9085 10.927 1.4394zm-42.684-8.3037c13.197-4.5412 24.537-14.754 30.137-27.14 3.1859-7.0474 4.5556-17.274 3.3713-25.172-0.6444-4.297-6.3276-14.301-10.272-18.082-10.724-10.279-20.686-14.629-35.291-15.411-15.747-0.84332-29.863 2.6742-55.038 13.715-9.8168 4.3052-11.673 4.9297-28.5 9.5901-8.4931 2.3522-11.959 2.7763-23 2.8145-9.1853 0.03175-14.027-0.38147-16.5-1.4082-7.0398-2.9228-14.515-9.5824-17.015-15.158-0.589-1.314-1.7201-3.5141-2.5133-4.8891-1.956-3.3902-1.8682-13.362 0.155-17.626 0.8948-1.8856 2.7555-4.3161 4.1349-5.4011 9.2232-7.255 17.494 8.8015 8.7602 17.007-1.3871 1.3031-2.5219 3.1097-2.5219 4.0148 0 2.6014 5.1966 7.7414 10.055 9.9454 10.327 4.6849 16.945 1.1575 16.945-9.0321 0-5.2913-3.6258-17.616-6.1124-20.777-3.5918-4.5662-1.7483-5.7179 2.4433-1.5264 3.3207 3.3207 8.1595 15.898 9.5143 24.73 1.2308 8.0234 1.8577 8.9615 7.0243 10.509 2.1412 0.64155 4.4517 1.8394 5.1343 2.6618 1.9515 2.3514 3.1342 1.7247 8.8368-4.6823 4.9846-5.6005 5.3091-6.2777 4.8689-10.161-0.2594-2.2885-1.1975-5.8277-2.0847-7.8649-2.6089-5.9901-12.747-17.694-20.125-23.231-1.9839-1.4891-1.9826-1.5015 0.1602-1.533 2.1039-0.03097 11.039 6.3398 14.628 10.43 0.9837 1.121 4.215 5.4276 7.1807 9.5704 7.2185 10.083 8.3719 10.993 14.784 11.654 6.2766 0.6478 11.5-0.72278 17.067-4.4783 3.2968-2.2241 7.4717-7.803 6.5042-8.6915-0.1781-0.16351-2.3487-0.99251-4.8237-1.8422-13.474-4.626-22.505-9.1458-34.321-17.178-4.8517-3.298-10.529-6.8963-12.616-7.9963s-4.4189-2.5252-5.1813-3.167c-2.188-1.842-11.943-5.5437-16.881-6.4059-9.2764-1.6195-28.225 3.887-30.959 8.997-0.6276 1.1725-1.5373 1.887-2.0217 1.5876-1.7608-1.0883-9.0618 7.6517-12.52 14.988-3.3584 7.1237-4.0925 11.875-3.3672 21.794 0.7612 10.41 2.5313 15.009 8.7393 22.706 7.8859 9.7774 14.533 13.932 30.194 18.871 7.5575 2.3836 20.801 2.4642 30.84 0.18768 17.022-3.8599 28.759-8.2728 37.595-14.135 11.272-7.4785 28.419-13.791 41.618-15.321 5.397-0.62562 19.351 2.093 24.69 4.8106 12.702 6.4641 18.347 19.435 13.14 30.191-2.328 4.809-8.2453 8.4435-12.441 7.6414-3.4322-0.6561-7.5083-5.7175-7.5083-9.3231 0-3.8116 3.1805-6.9233 7.0766-6.9233 2.9445 0 3.0631-0.16102 2.7617-3.75-0.5971-7.111-7.9608-12.679-16.472-12.455-6.3535 0.16717-9.2316 1.8411-12.177 7.0824-2.5894 4.6073-2.8782 11.538-0.6982 16.755 2.3539 5.6337 9.0825 12.98 13.512 14.752 4.5756 1.8308 5.4993 3.9067 1.1882 2.6703-11.248-3.226-21.108-16.391-21.168-28.264-0.0332-6.5884-3.461-9.7849-10.514-9.8041-2.7556-0.00751-5.9579-0.26804-7.1161-0.57895-1.6978-0.45575-3.0059 0.63194-6.75 5.6127-3.9019 5.1907-4.6441 6.8882-4.6441 10.622 0 3.9173 0.5627 5.0493 4.75 9.5549 5.7818 6.2213 17.782 15.266 23.765 17.913 6.0979 2.6974 6.8929 4.3424 1.7662 3.6548-8.4732-1.1365-17.173-6.4721-27.651-16.959-5.4282-5.4327-11.249-10.591-12.935-11.463-7.7863-4.0264-26.07 1.5418-30.672 9.3408-2.9444 4.9904-2.6449 6.3164 1.4266 6.3164 6.6707 0 14.16 2.258 25.549 7.7034 23.64 11.302 38.205 17.063 47 18.59 7.0064 1.2164 19.932 0.62191 25.093-1.154zm104.15-1.874c0.6905-0.54346 2.8623-1.2342 4.8264-1.535s7.1391-2.2051 11.5-4.2319l13.929-6.4682c15.847-7.3507 24.766-10.031 33.384-10.031 3.9137 0 7.1158-0.23945 7.1158-0.53212 0-4.2171-10.27-16.468-13.806-16.468-0.9868 0-2.2561-0.46196-2.8207-1.0266s-3.3755-1.3048-6.2463-1.6448c-8.8742-1.051-11.826 0.60029-23.584 13.194-8.2766 8.8648-11.774 11.849-16.752 14.293-6.2947 3.0904-11.791 4.886-11.791 3.8517 0-0.30237 2.8125-2.0387 6.25-3.8584 7.4198-3.9279 19.676-15.621 22.468-21.436 2.494-5.1941 2.0957-8.9533-1.7144-16.181-1.6498-3.13-3.0007-6.2534-3.0019-6.9409-0.0028-1.6146 0.0509-1.6202-8.3469 0.88192-3.9354 1.1726-8.153 3.0372-9.3726 4.1436-2.3635 2.1443-4.7137 8.4414-5.8234 15.603-0.8161 5.2663-3.5368 10.289-8.3718 15.454-4.3582 4.6558-7.9903 6.6676-12.038 6.6676-4.1462 0-3.844-1.5827 0.5811-3.0431 4.1832-1.3806 10.45-6.7232 13.26-11.304 1.0638-1.7344 2.2564-5.4034 2.6503-8.1534s0.8437-5.7152 0.9995-6.5894c0.4862-2.7291-3.2407-9.6707-6.2064-11.56-1.5585-0.99268-3.122-2.2121-3.4742-2.7098-0.7968-1.1257-7.0001-0.01876-11.249 2.0073-3.384 1.6137-7.6108 6.9202-7.6108 9.5549 0 0.86884 1.1637 1.8718 2.5861 2.2288 7.0829 1.7777 9.9379 10.437 4.779 14.495-3.3091 2.6029-9.9982 2.7308-12.968 0.24791-3.3145-2.7707-4.3968-5.621-4.3968-11.579 0-9.7096 5.0735-16.391 16.952-22.325 5.2448-2.62 6.287-2.7711 19.048-2.7619 13.778 0.00988 17.109 0.68322 29.21 5.9042l7.2897 3.1344c2.2 0.94327 5.772 2.5558 7.9378 3.5834s4.2831 1.8684 4.7051 1.8684 3.825 1.4126 7.5622 3.139 8.5949 3.9486 10.795 4.938c18.312 8.2357 48.376 8.0715 62.278-0.34031 15.752-9.5306 22.843-21.228 23.943-39.496 0.6729-11.174-3.8548-21.557-13.53-31.027-6.9912-6.8433-12.717-9.6585-23.191-11.403-15.119-2.5183-22.764-1.2031-36.991 6.363-5.2298 2.7814-11.932 6.9177-14.894 9.1917-17.489 13.429-25.231 17.635-32.462 17.635-3.0056 0-8.7645 2.8954-5.9036 2.9682 0.6875 0.01749 1.252 0.5943 1.2546 1.2818 0.0065 1.756 5.5421 7.4643 8.9449 9.2239 4.6948 2.4278 11.422 3.5668 15.002 2.5401 3.7199-1.0668 6.4339-3.7545 11.922-11.806 6.2911-9.2296 19.435-20.057 28.017-23.079 2.8134-0.99079 5.4139-2.1 5.7789-2.465s1.2636-0.66358 1.9969-0.66358c2.9345 0 0.9774 1.7075-6.0463 5.275-16.568 8.4154-32.884 30.095-28.121 37.365 0.8001 1.221 2.822 3.0277 4.4932 4.0149s3.5939 3.071 4.2728 4.6308c1.0084 2.317 1.6917 2.7348 3.7343 2.2839 1.375-0.30358 4.6496-0.99656 7.2769-1.54s5.6242-1.4415 6.6599-1.9957c2.0462-1.0951 3.2102-6.0381 2.9516-12.534-0.1951-4.8994 1.7683-11.823 4.6792-16.5 2.2504-3.616 12.046-13 13.57-13 1.6548 0 0.8228 1.275-4.782 7.329-8.9789 9.6982-11.235 17.032-7.815 25.401 2.1265 5.2028 5.2354 7.1882 11.677 7.4578 4.256 0.1781 6.0707-0.25718 8.6098-2.0652 2.9607-2.1082 7.1719-8.6172 7.1719-11.085 0-0.57335-1.8-2.6686-4-4.6562-3.1043-2.8045-4-4.3413-4-6.8625 0-8.0617 8.3094-11.299 14.806-5.7685 3.6361 3.0958 6.5924 12.153 5.672 17.378-2.2133 12.563-14.823 23.396-30.157 25.907-14.514 2.377-33.702 4e-5 -44.497-5.5123-1.8279-0.93333-5.8514-2.52-8.9412-3.526s-7.8147-2.9211-10.5-4.2559c-4.5429-2.2582-19.249-7.9283-27.441-10.58-11.166-3.6147-31.913-3.8996-41.441-0.56907-13.901 4.8592-23.788 17.296-27.03 34.001-1.24 6.3898-1.1972 7.8274 0.4319 14.506 3.9266 16.098 12.067 26.052 25.366 31.016 4.4816 1.6728 7.1322 1.8946 18.477 1.5461 7.2846-0.22384 13.81-0.85163 14.5-1.3951zm-60.405-66.116c4.1486-3.8754 3.2172-7.9081-2.5379-10.988-3.581-1.9164-9.3147 1.3208-9.2871 5.2435 0.0327 4.6499 2.9449 7.6932 8.1295 8.4953 0.3543 0.05482 2.0173-1.183 3.6955-2.7506zm216.43-9.9487c2.3252-2.0895 6.0697-4.601 8.3211-5.5813 2.9751-1.2953 4.5451-2.8062 5.7471-5.5304 0.9095-2.0615 2.8286-4.377 4.2645-5.1455s3.958-3.3552 5.6043-5.7481l2.9935-4.3508-7.8514 0.67947c-5.4669 0.47311-10.661 0.19297-17.102-0.92243-11.42-1.9776-10.603-2.0314-9.8517 0.6481 1.429 5.0949 1.8243 19.547 0.6332 23.156-2.44 7.3935 0.7527 8.6259 7.2413 2.7951zm-436.03-11.06c-0.4976-12.269-0.4031-13.117 2.0612-18.5 1.4204-3.1027 2.4198-5.6412 2.2208-5.6412s-2.4063 0.87639-4.9051 1.9475c-7.1119 3.0485-13.806 3.8867-23.33 2.9213-4.7416-0.48061-8.8053-0.68952-9.0306-0.46427-0.6637 0.6637 2.4 5.877 5.1725 8.8018 1.411 1.4885 2.5655 3.382 2.5655 4.2079 0 2.3672 7.2362 9.3576 10.523 10.165 2.8861 0.7092 7.4773 4.632 7.4773 6.3887 0 0.84563 4.3815 2.796 6.6335 2.9529 0.8152 0.05677 0.9871-3.5331 0.612-12.78zm250.25-0.68329c19.859-3.3315 31.768-6.7864 51.5-14.941 21.66-8.9514 39.674-18.711 50.063-27.123 11.356-9.1958 27.011-23.356 31.195-28.218 2.2137-2.5719 4.327-4.9011 4.6961-5.1761 0.5446-0.40577 12.352-14.649 17.463-21.065 6.5499-8.2229 19.147-32.009 24.592-46.435 1.2455-3.3 3.0641-8.025 4.0413-10.5s2.0993-6.3 2.4935-8.5 1.1198-4.5102 1.6124-5.1337 1.5345-4.4485 2.3154-8.5 2.1079-10.312 2.9488-13.913c1.5641-6.6971 1.9477-10.505 3.169-31.453 0.9496-16.287 0.9415-16.955-0.4054-33.674-1.6595-20.6-6.8673-42.104-14.61-60.326-4.8108-11.323-13.694-29.309-16.431-33.271-2.9808-4.3133-10.143-16.124-10.143-16.726 0-1.9781-18.204-23.6-29-34.445-8.0744-8.111-26.894-23.141-31.742-25.35-1.242-0.56592-2.2582-1.4067-2.2582-1.8684s-0.4801-0.83948-1.0668-0.83948-2.4992-1.0863-4.25-2.414c-3.0836-2.3384-21.048-11.606-29.183-15.056-18.16-7.6999-43.544-15.043-60-17.358-42.112-5.9226-84.497-0.81396-120.37 14.508-35.555 15.187-56.708 29.157-81.188 53.621-14.369 14.359-30.306 35.474-35.596 47.16-0.7566 1.6714-1.8024 3.7139-2.3239 4.5389-2.0034 3.1694-11.022 22.957-11.028 24.196-0.0034 0.71714-0.6227 2.4855-1.3763 3.9297-1.7494 3.3528-7.2818 20.84-8.6604 27.374-0.5802 2.75-1.4612 6.8-1.9578 9-2.9136 12.908-5.2103 36.52-4.669 48 0.3112 6.6 0.7797 13.125 1.0411 14.5s0.7695 5.65 1.129 9.5c0.9164 9.8124 5.3199 33.182 7.6003 40.336 6.0895 19.102 12.693 33.971 23.125 52.07 16.003 27.765 27.273 41.489 48.467 59.019 12.356 10.22 10.463 8.7724 20.106 15.376 26.013 17.815 59.846 31.895 88.202 36.705 4.125 0.69974 9.9939 1.8228 13.042 2.4957s10.014 1.3136 15.48 1.4239 10.172 0.44535 10.458 0.74467c0.9513 0.99548 32.38-0.67948 41.52-2.2128zm207.88-20.639c2.2638-0.6498 5.3105-1.9998 6.7704-3s3.1005-1.8185 3.6458-1.8185 4.1072-3.085 7.9153-6.8555c5.9555-5.8967 8.7905-9.9886 13.387-19.323l1.8534-3.7381c1.8872-3.7822 3.2777-15.448 2.7348-22.945-1.5069-20.81-2.6271-24.266-17.93-55.325-12.618-25.609-12.899-26.438-13.363-39.442-0.2933-8.2232-0.0171-12.037 1.058-14.611 0.8002-1.9152 1.6774-4.709 1.9493-6.2083 0.4825-2.6609 0.9754-3.4703 5.0954-8.3668 5.8907-7.0011 17.058-9.2593 25.891-5.2355 5.3745 2.4484 6.3448 3.6374 6.7365 8.2548 0.3601 4.2451-3.0159 9.7947-5.9584 9.7947-3.2793 0-7.1013-2.478-8.8687-5.75-1.9443-3.5995-3.4402-3.9253-8.4368-1.8376-3.99 1.6671-7.8639 8.653-7.8639 14.181 0 4.4079 3.9359 9.84 8.2092 11.33 10.194 3.5536 24.52-2.6339 32.098-13.863 0.9056-1.3418 1.9477-2.1385 2.3158-1.7703 0.9065 0.90652-3.994 8.1639-7.9309 11.745-4.151 3.776-7.4789 5.3406-17.534 8.2436-10.553 3.0467-12.225 4.6886-12.762 12.534-0.3956 5.7818-0.2612 6.2159 2.8442 9.1868 4.7979 4.59 10.226 7.1626 13.508 6.4019 8.1937-1.8991 20.536-13.523 25.796-24.294 1.6255-3.3288 3.5181-6.0646 4.2056-6.0797 1.6735-0.03675 1.7477-0.27138-2.3944 7.5718-5.3978 10.221-8.3645 14.179-16.226 21.649-9.856 9.3647-12.142 13.261-12.337 21.023-0.2484 9.892 6.3377 21.759 13.162 23.716 3.6692 1.0523 3.5234 1.3057 4.9871-8.6641 1.1371-7.7444 4.3851-16.46 10.555-28.323 4.1318-7.9442 7.9813-16.535 9.6341-21.5 0.5493-1.65 1.405-3.7581 1.9017-4.6846 3.5063-6.5416 3.5913-30.83 0.1329-37.974-1.1909-2.46-2.1652-4.9115-2.1652-5.4476s-3.0375-4.2017-6.75-8.1458c-5.4283-5.7668-8.3166-7.8983-14.75-10.885-6.7212-3.1204-9.0391-3.706-14.5-3.663-16.565 0.13046-31.824 9.2989-38.122 22.906-3.6159 7.8122-4.917 13.481-5.581 24.315-0.8879 14.487 2.4113 28.161 11.359 47.079 1.9511 4.125 4.5831 10.2 5.8489 13.5s3.0997 7.8 4.0752 10 1.8699 4.45 1.9877 5 0.9614 3.8544 1.8747 7.3431c2.1301 8.1366 2.0058 27.456-0.2192 34.08-1.9727 5.8734-8.9422 16.539-13.878 21.237-11.199 10.66-31.346 6.345-31.346-6.7136 0-5.9159 0.696-7.2512 4.8966-9.3942 6.7609-3.4492 12.103-0.31048 12.103 7.1108 0 2.0452 0.4203 3.9783 0.934 4.2958s2.7406-0.14549 4.9484-1.0289c6.7278-2.6919 11.409-10.759 10.522-18.131-0.7634-6.3394-1.3037-7.1034-6.9922-9.8865-4.5146-2.2088-6.3493-2.5806-10.38-2.1032-5.3275 0.63097-11.942 3.6-15.136 6.7942-1.1116 1.1116-2.5194 1.8549-3.1285 1.6519-1.8978-0.6326 10.141-9.6511 14.549-10.899 2.3011-0.65126 7.3338-1.1105 11.184-1.0206 11.332 0.26477 12.772-0.80814 13.876-10.337 0.2549-2.2 0.7771-5.2375 1.1605-6.75 0.5057-1.9947 0.3218-2.7559-0.6695-2.7714-0.7516-0.01174-2.5924-1.755-4.0907-3.8738-2.7549-3.896-7.9587-7.1049-11.522-7.1049-3.2733 0-13.98 7.6325-23.089 16.459-4.7594 4.6119-8.8231 8.2156-9.0305 8.0082s0.7708-2.3359 2.1739-4.73c3.0678-5.2349 14.123-16.187 21.637-21.435 2.9947-2.0915 6.2652-5.2081 7.2679-6.9258 2.3237-3.9807 2.9573-12.841 1.2694-17.751-1.2146-3.533-9.4193-12.626-11.393-12.626-1.1751 0-2.0894 2.564-2.0894 5.8594 0 2.6864-4.3983 12.082-8.0686 17.237-1.0623 1.4919-1.9314 2.9874-1.9314 3.3235s-2.1798 3.6416-4.8439 7.3456-5.6967 8.3097-6.739 10.235-2.4286 4.175-3.0808 5c-5.5771 7.0549-11.096 25.515-10.087 33.741 0.99 8.0727 3.937 18.927 6.5312 24.056 4.6247 9.1426 14.554 17.85 23.619 20.711 5.2693 1.6633 17.688 1.8312 22.985 0.31077zm-460.21-8.7028c7.7722-3.8632 16.872-12.523 20.044-19.074 2.968-6.1305 4.0653-12.051 4.0854-22.041 0.0211-10.527-1.1093-15.332-5.1525-21.903-1.7351-2.82-3.1547-5.3136-3.1547-5.5414s-1.8-3.1242-4-6.4364-4-6.3291-4-6.7043-2.9034-5.0296-6.452-10.343-7.7092-12.903-9.2459-16.866c-1.5566-4.0144-3.3932-7.2055-4.1471-7.2055-0.7443 0-3.3136 2.0754-5.7097 4.612-3.4159 3.6164-4.4931 5.6132-4.9896 9.25-0.3482 2.5509-0.7716 5.5577-0.9409 6.6818-0.6717 4.4621 1.9997 7.8572 9.3518 11.885 7.8831 4.3189 18.507 13.465 20.81 17.914 0.8092 1.5636 1.2833 3.0309 1.0536 3.2606s-3.5216-2.5372-7.3153-6.1487c-10.772-10.255-23.516-15.52-30.578-12.635-3.0867 1.2613-10.124 10.121-9.096 11.452 0.522 0.67546 1.5033 3.2531 2.1806 5.7281 1.7067 6.2364 4.1488 7.7416 13.136 8.0967 7.2068 0.28471 8.9454 0.67829 15.538 3.5174 5.0977 2.1953 10.786 7.9647 9.9344 10.076-0.6855 1.6991-0.7783 1.6875-1.517-0.19007-2.3411-5.9504-20.271-12.253-27.278-9.5894-2.865 1.0893-7.5475 8.3235-8.7026 13.445-0.9515 4.2187 3.0144 14.304 6.7066 17.056 1.4108 1.0513 4.7457 2.1209 7.4109 2.377l4.8458 0.46562-0.5935-5.877c-0.5184-5.1338-0.3186-6.1669 1.5803-8.1692 2.9496-3.1101 9.1102-2.5695 12.803 1.1235 6.7944 6.7944-0.3402 18.42-12.077 19.68-8.3725 0.89864-14.013-1.2887-20.409-7.9144-6.2824-6.5082-9.0105-12.482-10.372-22.713-2.1555-16.198-0.3154-24.703 10.158-46.95 1.0527-2.2362 1.9141-4.5189 1.9141-5.0728s1.2903-3.6743 2.8673-6.9343c9.1568-18.928 11.131-24.071 13.729-35.758 1.4109-6.3478 1.5318-8.7149 0.6384-12.5-0.6061-2.5681-1.3901-6.425-1.7421-8.5708s-2.0115-7.6917-3.6877-12.324c-5.6058-15.493-16.47-24.298-32.135-26.045-21.152-2.3588-33.299 4.9745-44.192 26.679-1.9125 3.8108-3.4773 7.7903-3.4773 8.8432s-0.3033 2.2176-0.6739 2.5883c-0.808 0.80795-1.1048 3.8031-1.3159 13.277-0.2341 10.511 2.266 19.107 10.436 35.882 8.3958 17.238 12.109 27.1 14.976 39.772 0.5286 2.337 0.92 2.6152 2.4942 1.7728 2.7341-1.4632 9.6542-8.2128 10.905-10.636 1.8157-3.518 4.1489-10.791 4.1643-12.981 0.0281-3.9992-3.046-10.991-6.5686-14.94-15.469-17.341-18.922-21.959-19.962-26.695-0.3347-1.5237-1.0239-3.0271-1.5316-3.3409-1.2064-0.74562-1.1985-4.4524 0.0096-4.4524 0.5129 0 1.2404 1.0125 1.6167 2.25 2.0784 6.8355 15.102 23.243 22.124 27.873 3.8342 2.528 6.3078 2.3543 10.383-0.72895 1.8943-1.4333 4.9068-3.2394 6.6943-4.0134l3.25-1.4074v-7.5218c0-10.05-1.2488-11.845-10.065-14.471-9.7291-2.8974-18.43-7.4624-20.939-10.986-3.4031-4.7792-1.8954-5.3224 2.6783-0.96499 4.6756 4.4544 12.932 8.9704 16.4 8.9704 5.4843 0 12.331-4.0646 14.777-8.7721 1.2715-2.4476-0.1071-11.211-2.2816-14.504-3.143-4.7593-10.569-8.8352-10.569-5.8009 0 0.50781-1.165 2.3078-2.5889 4-3.8503 4.5758-8.471 4.3352-11.378-0.59228-2.5593-4.3378-2.1428-7.0571 1.7481-11.412 2.3234-2.6004 3.6572-3.1486 8.7928-3.6143 7.0534-0.63959 9.9402 0.51635 16.017 6.4136 5.6581 5.491 9.9196 17.189 9.756 26.781-0.191 11.202-3.467 22.508-11.02 38.031-3.7548 7.7171-8.135 18.067-9.7339 23s-3.2924 9.8689-3.7632 10.969c-1.4057 3.2838-5.8133 25.714-5.8218 29.627-0.0117 5.3472 2.9342 17.583 5.7477 23.873 4.7215 10.555 5.2798 11.531 9.2516 16.162 6.9703 8.1279 18.251 11.874 34.493 11.454 5.6939-0.14718 8.2459-0.80027 13.678-3.5003zm-79.978-157.32c-1.4112-1.4112-1.5683-2.8-0.3167-2.8 0.4859 0 1.1188 0.9 1.4064 2 0.6104 2.3343 0.5148 2.4045-1.0897 0.8zm475.22 136.64c4.2161-4.2161-0.2265-12.435-6.7216-12.435-5.8815 0-8.6874 5.2374-5.8884 10.991 2.5437 5.2288 8.1798 5.8742 12.61 1.444zm-352.78-2.5511c0.9119-0.75676 1.3484-2.5584 1.1608-4.7913-0.2328-2.7716-0.9242-3.876-3.0666-4.8979-6.7555-3.2222-12.957 4.5867-7.9956 10.069 1.9037 2.1035 7.152 1.9024 9.9014-0.37944zm-143.29-159.45c4.3736-6.2996 10.937-11.818 20.252-17.027 5.654-3.1619 7.4088-5.4072 4.226-5.4072-0.581 0-4.4225-1.5764-8.5366-3.503-7.7779-3.6424-19.325-13.809-21.183-18.651l-0.9003-2.3458-1.1888 3c-0.6539 1.65-1.2081 5.475-1.2315 8.5-0.0235 3.025-0.3883 5.95-0.8109 6.5s-1.3269 2.8824-2.0097 5.1831c-1.1245 3.7888-1.0343 4.5344 0.9572 7.9098 1.7343 2.9393 2.0726 4.6576 1.6012 8.1332-0.461 3.3994-0.0915 5.4198 1.6167 8.8402 1.2179 2.4386 2.4721 4.4284 2.7871 4.4219 0.315-0.00651 2.3042-2.5058 4.4204-5.554zm643.34-6.1022c-0.4355-4.2537-0.1896-5.4754 1.3902-6.905 2.4905-2.2539 2.4365-6.4927-0.1471-11.557-1.6396-3.2138-1.863-4.6338-1.0817-6.8752 0.5416-1.5536 0.8394-2.9755 0.6617-3.1598s-0.6022-2.1088-0.9434-4.2767-0.8409-4.1623-1.1105-4.4319-2.3959 1.4499-4.725 3.8213c-5.8947 6.0015-13.135 11.312-20.485 15.024-3.4375 1.7362-6.25 3.3397-6.25 3.5633s2.4535 1.5672 5.4522 2.9859c6.0576 2.8657 19.218 14.591 22.7 20.225l2.2488 3.6387 1.4095-3.4422c0.8999-2.1978 1.2182-5.3105 0.8804-8.6102zm-572.8-7.332c0.4013 0 1.7505-0.95104 2.9981-2.1134 5.5654-5.1849-3.0751-14.304-9.1311-9.6366-1.6821 1.2964-2.0802 2.6737-1.8787 6.5 0.1517 2.8814 3.818 6.5793 5.7776 5.8273 0.8274-0.31753 1.8328-0.57732 2.2341-0.57732zm496.47-2.0726c3.0907-2.4311 3.2833-4.5704 0.6913-7.6774-2.6333-3.1565-7.4966-3.0341-9.6436 0.24271-1.8812 2.8711-1.1981 7.5073 1.1062 7.5073 0.8145 0 1.481 0.45 1.481 1 0 1.7076 3.6023 1.1006 6.3651-1.0726zm-519.1-11.968c3.097-0.57251 7.7922-2.239 10.434-3.7033 7.3114-4.0531 15.906-13.173 19.276-20.454 4.8278-10.431 6.1164-27.518 3.0017-39.802-0.4881-1.925-1.1231-4.85-1.4111-6.5-1.5414-8.8324-4.4047-16.887-13.508-38-0.4743-1.1-2.2301-6.05-3.9017-11-6.9687-20.635-7.315-23.99-4.1551-40.266 2.6959-13.885 6.7162-20.167 16.501-25.784 4.2576-2.4439 6.1136-2.876 12.5-2.9104 5.6706-0.03057 8.1584 0.4064 10.199 1.7915 2.503 1.6986 5.0585 6.8583 5.3846 10.872 0.1978 2.4343-4.6014 7.5002-7.7737 8.2057-3.8361 0.85315-8.1549-2.996-8.0364-7.1626 0.1471-5.1741-4.1321-5.3518-10.583-0.43955-4.4983 3.4255-6.191 7.0976-6.191 13.431 0 10.149 7.1173 14.785 19.5 12.703 8.0637-1.356 10.246-2.4737 15.335-7.8564 4.2593-4.5045 4.3237-4.5322 3.6808-1.5848-0.3598 1.65-2.0857 4.5019-3.8351 6.3376-5.3372 5.6003-9.7213 7.2344-21.809 8.1289-6.4793 0.47948-11.543 1.3456-12.498 2.1376-0.8824 0.73234-3.0588 4.3761-4.8364 8.0973l-3.2321 6.7658 5.1395 3.5397c6.1046 4.2044 11.502 5.881 15.87 4.9298 8.7746-1.9107 21.916-12.204 28.278-22.151 1.8735-2.9288 3.4064-5.7663 3.4064-6.3056s0.45-0.98058 1-0.98058 1-1.1516 1-2.559 0.4127-2.3039 0.9172-1.9921c1.3421 0.82946-0.6094 7.036-4.2287 13.449-4.4901 7.9559-14.875 18.57-21.034 21.497-7.0231 3.3383-11.622 8.0133-11.779 11.974-0.4962 12.522 0.642 16.652 6.1904 22.459 3.5071 3.6703 3.9473 3.4935 5.7953-2.3272 1.5181-4.7814 8.0265-18.168 10.138-20.852 0.825-1.0487 2.5678-3.086 3.8729-4.5273 2.68-2.9596 15.085-21.769 15.894-24.101 0.2903-0.83603 1.4411-3.545 2.5573-6.02 2.9601-6.5634 2.8339-22.035-0.253-31-4.7657-13.842-10.576-21.079-20.571-25.625-5.322-2.4203-7.2432-2.737-17-2.802-15.53-0.1034-22.877 2.8942-33.754 13.772-9.1992 9.1992-14.901 27.597-14.15 45.655 0.3868 9.2969 2.7411 21.503 4.9726 25.78 0.7804 1.496 1.4217 3.1824 1.4251 3.7476s2.7353 7.0902 6.071 14.5c12.063 26.796 16.528 43.106 14.932 54.546-1.9705 14.126-7.8572 22.441-18.193 25.699-13.011 4.1015-21.804 0.53459-21.804-8.845 0-3.5981 0.4851-4.5602 3.4332-6.8089 5.1734-3.9459 9.6967-3.2422 14.305 2.2255 2.6006 3.0854 3.9755 2.6076 8.4161-2.9248 5.5406-6.9027 3.8287-20.335-2.8899-22.677-5.9572-2.0767-16.876 2.3135-25.015 10.058-4.6432 4.4182-4.3674 0.94265 0.3386-4.2663 3.9246-4.3441 11.606-8.398 20.861-11.009 7.3899-2.0848 9.1933-4.427 9.8644-12.812 0.4777-5.9681 0.3684-6.3716-2.1553-7.9571-1.4622-0.91863-3.8639-2.6459-5.3371-3.8384-3.7222-3.013-9.0773-3.8682-12.544-2.0031-6.77 3.6426-19.147 17.703-22.651 25.731-2.19 5.018-2.0553 0.443 0.1515-5.1459 3.469-8.786 6.4544-13.29 14.148-21.345 4.2839-4.4851 8.3029-9.1377 8.9311-10.339 1.4933-2.8558 1.3898-16.061-0.1529-19.506-1.4561-3.2515-8.2722-8.8094-10.804-8.8094-1.306 0-2.2344 1.3484-3.2703 4.75-0.7956 2.6125-2.0966 6.325-2.8911 8.25-2.3261 5.636-3.0587 7.4682-3.1987 8-0.0723 0.275-1.1309 2.3-2.3524 4.5-10.291 18.536-12.461 22.982-14.639 30-3.4083 10.984-5.271 28.539-3.8377 36.169 2.6719 14.224 11.469 26.233 23.058 31.478 10.164 4.5996 19.032 5.7457 29.494 3.8118zm561.18-1.5554c3.2664-0.80252 7.7918-2.6313 10.056-4.064 8.3768-5.2995 17.782-21.934 18.817-33.28 0.6534-7.1635-0.8719-22.827-2.6351-27.06-0.3437-0.825-1.0846-3.6196-1.6464-6.2102-0.9704-4.4748-3.4254-10.289-6.6668-15.79-0.8102-1.375-2.1168-3.9317-2.9034-5.6816s-1.8743-3.456-2.417-3.7914c-2.9576-1.8279-8.0436-19.605-8.0436-28.115 0-3.8388-1.3687-4.3125-5.7997-2.007-9.7387 5.0671-14.473 20.654-9.3094 30.65 2.6172 5.0659 8.8754 13.789 13.592 18.945 3.9212 4.2867 9.2852 13.093 11.089 18.204 1.6919 4.7952 1.2042 4.8085-1.6791 0.04579-2.9579-4.886-9.7376-13.708-14.409-18.75-7.4724-8.0645-11.51-9.2052-17.698-5-2.0235 1.375-4.1171 2.5-4.6525 2.5-1.4578 0-2.5729 12.738-1.35 15.422 1.0034 2.2021 1.9904 2.6001 13.717 5.531 6.7872 1.6963 17.477 11.748 17.493 16.45 0.0069 2.0005-0.7528 1.3594-5.8483-4.9353-4.026-4.9735-14.613-9.1652-20.405-8.0788-5.4978 1.0314-12.542 6.235-13.593 10.041-1.9105 6.919 0.9976 14.197 7.5309 18.849 5.4129 3.8538 9.3221 3.2896 9.3221-1.3453 0-3.7573 4.1894-7.9332 7.9589-7.9332 4.6394 0 10.853 8.6272 9.6545 13.404-0.9449 3.7651-6.8878 9.2374-10.836 9.9781-10.466 1.9634-24.376-5.613-29.26-15.937-2.3415-4.9495-2.6534-6.81-2.6024-15.526 0.0319-5.4463 0.4703-10.694 0.9742-11.661s1.4874-3.7833 2.1856-6.2583 3.9204-10.083 7.1603-16.906c15.095-31.791 18.768-43.59 19.385-62.271 0.2332-7.0616-0.0486-12.793-0.7131-14.5-0.6043-1.5525-1.7172-5.1555-2.473-8.0068-2.2065-8.3238-7.4322-18.367-11.862-22.796-11.707-11.707-30.258-16.291-43.042-10.636-8.8227 3.9027-20.516 14.666-24.768 22.796-3.9358 7.527-7.4275 31.173-4.8394 32.772 0.5077 0.31377 1.2342 1.9871 1.6145 3.7186 0.6731 3.0643 3.6948 8.1082 10.981 18.329 1.9604 2.75 6.0315 9.05 9.0469 14s5.9106 9.675 6.4338 10.5c0.9881 1.5582 3.7747 7.7761 6.3861 14.25 0.832 2.0625 2.1761 3.75 2.987 3.75 4.6717 0 13.801-13.815 13.994-21.177 0.1251-4.7708-2.789-7.9324-10.807-11.725-8.1313-3.846-15.319-9.4354-20.745-16.131-11.275-13.915-9.6297-14.603 3.5068-1.467 5.225 5.225 10.033 9.5 10.685 9.5s2.4249 0.88256 3.9397 1.9612 4.7205 2.403 7.1235 2.9429c5.1952 1.1673 8.1541 0.00307 14.787-5.818 3.8011-3.336 4.2149-4.0858 3.25-5.8887-0.6081-1.1363-1.1056-4.7405-1.1056-8.0093 0-4.0252-0.4773-6.3394-1.4789-7.1706-0.907-0.7528-5.5148-1.3302-11.918-1.4934-10.741-0.2738-15.812-1.7914-21.23-6.3536-2.0987-1.7674-5.9296-8.1706-4.8883-8.1706 0.2953 0 3.1194 1.7311 6.2757 3.847 11.46 7.6823 19.866 8.8361 25.604 3.5147 4.4917-4.1649 7.4082-14.147 4.6343-15.862-0.55-0.33992-1-1.6631-1-2.9403 0-2.845-5.8076-7.5597-9.312-7.5597-1.7827 0-2.7874 0.82576-3.7076 3.0472-1.2526 3.0241-5.42 5.9528-8.4706 5.9528-2.6406 0-9.3693-3.8688-10.543-6.0619-2.8852-5.3911 3.2913-13.15 11.441-14.372 8.5881-1.2879 20.195 3.8547 25.493 11.295 6.4429 9.0483 8.747 18.759 8.39 35.361-0.1715 7.976-0.7827 11.387-3.4042 19-1.7573 5.1032-3.5758 9.4286-4.041 9.6119s-0.8457 1.0079-0.8457 1.8324c0 1.4228-2.6075 7.7702-9.1749 22.334-4.3729 9.6977-4.4497 9.9056-6.6492 18-4.6934 17.272-5.2211 27.262-2.0451 38.716 3.8458 13.869 9.3906 21.39 20.634 27.988 7.2452 4.252 21.45 4.9481 34.674 1.6992zm-114.27-160.06c3.9282-3.555 0.6647-11.345-4.7528-11.345-5.4643 0-8.2954 6.0217-5.1779 11.014 1.5564 2.4922 7.3302 2.6849 9.9307 0.33144zm-349.7-2.2954c2.0262-3.9184 1.9241-5.6512-0.4743-8.0497-3.0045-3.0044-7.436-2.6009-9.932 0.90437-2.5686 3.6073-2.5682 4.19 0.0045 7.4608 3.0417 3.8668 8.3218 3.7067 10.402-0.31548zm348.16-19.686c15.072-5.0522 22.677-12.029 27.934-25.628 3.4839-9.0113 3.4957-18.858 0.0337-28.055-1.3359-3.5492-3.2559-7.4748-4.2666-8.7236-9.5151-11.757-16.442-16.684-28.902-20.558-7.6925-2.3916-10.535-2.7672-20.436-2.6999-12.434 0.0845-14.407 0.30428-23.5 2.6178-11.291 2.8726-16.01 4.4766-27 9.177-12.182 5.2099-20.667 8.3303-24.486 9.0038-1.3828 0.24388-6.9453 1.3554-12.361 2.47-15.753 3.2421-25.734 0.95142-34.634-7.9494-6.1306-6.1306-7.6333-16.062-3.608-23.846 1.7536-3.391 6.7625-5.163 11.265-3.9851 3.7998 0.99414 5.788 5.6714 4.869 11.454-0.6691 4.2101-1.8826 6.0132-4.6349 6.8868-4.4878 1.4244 0.0529 6.2963 7.5904 8.1439 8.8958 2.1806 15.85 0.278 18.744-5.1276 2.5565-4.7768 0.2112-15.555-4.4703-20.545-2.8634-3.0518-5.7732-7.1803-5.7732-8.1911 0-1.2786 3.3709 0.36563 6.3303 3.0877 3.0577 2.8125 6.8727 10.195 8.5797 16.603 0.5861 2.2 2.0836 5.2259 3.3278 6.7243 2.3677 2.8514 4.0586 3.1932 14.418 2.9144 4.9872-0.13419 5.2741-0.30274 8.75-5.141 1.9766-2.7513 3.5939-5.7357 3.5939-6.632 0-6.0287-16.378-21.143-27.082-24.992-5.1505-1.8521-7.7414-3.8837-6.5159-5.1092 1.0968-1.0968 14.667 3.8305 19.598 7.1157 5.1778 3.45 15.646 13.929 16.452 16.469 0.8368 2.6365 5.4704 4.8494 11.548 5.5148 4.846 0.5306 6.249 0.22671 11.8-2.5559 5.7604-2.8876 12.2-8.5752 12.2-10.775 0-1.1527-1.9155-1.7119-10.424-3.0432-6.07-0.94975-16.142-4.3519-17.576-5.9368-0.275-0.30397-2.075-1.3299-4-2.2798s-5.525-2.9387-8-4.4195c-6.5667-3.9289-14.067-7.531-17.5-8.4044-1.65-0.41981-6.6-1.7313-11-2.9144-10.838-2.9142-23.085-2.9102-30.89 0.01006-5.9412 2.2229-14.617 8.7742-20.502 15.482-10.707 12.204-11.845 30.514-2.8529 45.91 4.8065 8.2298 7.2024 10.603 15.251 15.104 15.303 8.5578 30.206 8.4423 62.993-0.48782 3.8006-1.0352 6.3151-2.0515 15-6.0628 10.152-4.6892 18.167-7.6038 27.645-10.053 11.044-2.8542 28.122-2.3379 37.355 1.1293 15.921 5.979 24.68 21.587 20.307 36.184-2.3431 7.8205-10.26 12.238-17.431 9.7263-3.3402-1.1698-7.3755-6.5776-7.3755-9.884 0-5.5015 5.3584-10.492 11.336-10.558 2.6901-0.02959 3.2106-0.44259 3.4776-2.7593 0.2419-2.0987-0.7606-3.8732-4.3645-7.7262-5.0601-5.4096-8.734-6.7814-15.009-5.6041-3.0335 0.5691-3.8466 1.337-5.5 5.1942-2.5816 6.0226-2.4463 10.555 0.5932 19.866 1.3933 4.2685 2.2887 8.0056 1.9896 8.3046-1.0052 1.0052-3.4325-3.2611-5.5816-9.8102-1.7893-5.4524-2.0246-7.8054-1.46-14.599l0.673-8.0994-3.4783-1.6506c-1.9131-0.90783-4.9978-1.6506-6.8548-1.6506s-4.314-0.65677-5.46-1.4595c-1.9439-1.3616-2.462-1.1074-7.7225 3.7883-4.7022 4.3761-5.6388 5.8086-5.6388 8.6242 0 3.7367 6.2391 16.02 11.452 22.547 3.9334 4.9245 4.9968 7.5 3.0967 7.5-1.3176 0-9.714-10.703-12.543-15.988-0.7272-1.3587-1.8135-2.9871-2.4142-3.6185s-1.767-2.1534-2.592-3.382c-0.825-1.2287-3.2663-3.3642-5.425-4.7455-3.3953-2.1727-4.7112-2.4403-9.7504-1.9834-7.1118 0.64487-13.792 4.305-17.312 9.4849-1.3818 2.0334-2.5123 4.1883-2.5123 4.7886s2.7535 1.6034 6.119 2.2293c8.0208 1.4916 16.929 5.7999 24.477 11.838 12.437 9.9491 21.279 16.601 24.051 18.095 12.974 6.9915 22.982 8.0054 35.988 3.6458zm-323.14-3.8712c8.9432-3.0827 18.734-8.2579 33-17.443 20.447-13.165 19.737-12.842 30.75-13.973 3.4279-0.35201-6.893-11.393-12.736-13.625-2.3653-0.90334-6.6481-1.7122-9.5172-1.7974-5.0604-0.1503-5.3521-0.00535-9.7492 4.8451-2.493 2.75-5.5737 6.6469-6.8459 8.6598-2.8354 4.4861-12.823 14.84-14.315 14.84-1.9439 0-1.1763-1.3874 4.8401-8.7481 3.2584-3.9865 7.1095-9.6706 8.5581-12.631 3.2429-6.6282 2.713-9.3752-3.0688-15.909l-4.0839-4.6154-4.9161 1.4565c-8.6182 2.5533-11.151 4.3848-12.284 8.8831-0.5629 2.2356-1.2304 6.8773-1.4832 10.315-0.6623 9.0045-6.8915 19.205-13.992 22.913-4.1261 2.1545-4.6441 0.6602-0.8109-2.3397 1.8068-1.4141 4.4227-4.373 5.813-6.5755 2.6139-4.1406 6.2731-13.961 6.3163-16.951 0.1272-8.8139-13.481-13.207-23.224-7.4973-3.0217 1.7708-4.9124 3.7229-5.6471 5.8304-1.4964 4.2927-1.4374 4.5634 1.1456 5.2585 1.2375 0.33298 3.3383 1.4534 4.6685 2.4899 1.9565 1.5244 2.3864 2.7068 2.25 6.1886-0.4347 11.092-12.752 12.439-18.834 2.0605-7.0428-12.018 0.2061-29.189 15.671-37.121 11.636-5.9683 29.788-5.5693 45.994 1.0111 11.325 4.5982 25.457 9.9822 26.201 9.9822 0.4514 0 2.9532 0.95236 5.5598 2.1164s6.2439 2.7802 8.0832 3.5916c20.626 9.0987 42.518 11.172 55.872 5.291 13.332-5.8711 24.678-17.887 27.808-29.45 1.5964-5.8973 1.6624-7.5908 0.5731-14.707-0.6771-4.423-1.7443-9.2344-2.3716-10.692-2.7176-6.3151-7.8371-13.062-12.52-16.499-6.2894-4.6168-19.186-9.3543-27.706-10.177-12.42-1.1999-31.464 3.4804-50.999 12.533-4.95 2.2939-9.675 4.3214-10.5 4.5054-1.9663 0.43868-10.693 3.4786-14.5 5.0513-1.65 0.68154-3.9 1.3999-5 1.5964-3.1626 0.56486-2.9678 4.7264 0.475 10.147 3.5006 5.5114 7.1685 7.4397 15.781 8.2963 8.6162 0.85694 12.047-1.06 24.322-13.59 10.079-10.288 17.305-15.496 20.566-14.822 0.9315 0.19257-0.4941 1.8143-3.7877 4.3088-8.1758 6.1923-15.99 15.119-20.069 22.927-1.4685 2.8107-1.4011 3.1097 1.689 7.5 1.7701 2.5149 3.479 5.3109 3.7976 6.2133 0.4847 1.3731 1.692 1.5602 7.4024 1.147 9.9837-0.72238 13.468-2.6894 14.897-8.4094 1.9044-7.6267 6.4071-15.696 10.789-19.336 2.2572-1.8749 4.2989-3.214 4.5371-2.9758s-1.1786 2.7958-3.1486 5.6834c-6.4836 9.504-8.0542 13.369-7.4851 18.418 1.0373 9.2029 8.682 13.108 19.191 9.8023 9.7728-3.0739 13.968-11.012 7.2935-13.802-3.7167-1.5536-5.2169-3.1732-6.0383-6.519-1.0806-4.4013 2.9611-9.1494 7.7883-9.1494 8.591 0 12.429 13.729 6.9258 24.773-4.9915 10.017-17.119 14.983-33.926 13.894-10.474-0.6789-15.454-2.204-40.5-12.404-25.552-10.406-26.663-10.793-36.122-12.58-15.315-2.8946-23.459-3.0863-32.762-0.77107-10.524 2.6192-19.942 7.2265-26.112 12.774-2.6392 2.3728-5.2949 4.3143-5.9016 4.3143s-1.103 0.8449-1.103 1.8776-0.6137 2.3868-1.3638 3.0093-2.4073 4.797-3.6828 9.2766c-2.1613 7.5904-2.2404 8.7685-1.1619 17.307 1.1107 8.7941 2.9699 14.963 5.5146 18.299 3.4765 4.5566 10.697 11.007 14.204 12.689 11.433 5.4842 29.012 6.8181 39.989 3.0343zm364.37-15.7c6.7666-2.393 16.014-3.4754 23.127-2.7072 3.025 0.32672 5.6453 0.48321 5.8229 0.34775 0.5171-0.39434-8.1308-8.8277-10.253-9.9985-1.2244-0.67551-2.0163-2.3135-2.1664-4.4807-0.2969-4.2894-5.1406-8.9546-9.2971-8.9546-1.574 0-3.4435-0.70094-4.1545-1.5576-1.6491-1.987-9.8865-6.8413-10.525-6.2025-0.2655 0.26554-0.0202 1.6995 0.5452 3.1866 1.6225 4.2676 1.2925 24.005-0.472 28.228-1.9553 4.6796-1.9004 5.7337 0.25 4.7994 0.9625-0.41819 4.1678-1.6154 7.123-2.6605zm-427.03-3.4227c-2.3093-5.2205-4.1008-21.21-3.1925-28.492 0.8646-6.9318-0.9319-7.0849-7.0624-0.60195-4.4422 4.6976-5.6257 5.4386-7.9697 4.9906-2.2595-0.43193-3.4573 0.20691-6.6839 3.5649-3.1859 3.3156-3.9311 4.8211-3.9311 7.9417 0 3.1141-0.5707 4.2724-2.9835 6.0564-2.9609 2.1891-6.3844 7.4691-5.4493 8.4043 0.2681 0.26813 2.3877 0.11978 4.7101-0.32966 7.8254-1.5144 21.812-0.97469 27.223 1.0504 7.4078 2.7727 7.6561 2.6526 5.3396-2.5843zm212.82-28.305c2.9417-1.7938 3.1034-2.1791 2.3383-5.5714-0.8043-3.5663-3.3035-6.3989-5.7016-6.4623-4.3157-0.1141-9.9909 6.2066-8.837 9.8423 0.5029 1.5845 4.7212 3.6937 8.04 4.0201 0.55 0.0541 2.4221-0.7688 4.1603-1.8287zm0.2471-54.066c1.6575-5.9931 7.1959-14.287 13.945-20.882 4.9056-4.7939 5.3247-5.5154 3.836-6.604-1.0371-0.75833-3.5825-1.0385-6.7076-0.73819-3.8462 0.36958-5.4839 0.07878-6.9309-1.2307-1.042-0.94305-3.7474-1.9632-6.012-2.2669-3.3386-0.44781-4.5595-0.1368-6.4555 1.6444-1.6051 1.5079-4.1289 2.3815-8.0489 2.786-3.2178 0.33211-5.9238 1.145-6.199 1.8622-0.6899 1.7977 1.451 5.4291 3.2007 5.4291 0.8057 0 1.4649 0.41796 1.4649 0.9288s1.6155 2.6417 3.59 4.7353c4.0261 4.2689 10.058 14.086 11.027 17.946 0.7929 3.159 1.6908 2.1739 3.2905-3.6101z" fill="#008080"/>
</svg>
