<?xml version="1.0" encoding="UTF-8"?>
<svg enable-background="new 0 0 178.682 198.823" viewBox="0 0 178.682 198.823" xmlns="http://www.w3.org/2000/svg">
 <path d="m96.576,7.782c-1.278-1.075.679-2.405-.479-3.36-3.558.283-5.447,2.232-6.72,4.8-1.754-5.291 12.458-10.97 12.96-4.8 .198,2.445-2.121,3.722-5.761,3.36z" fill-rule="evenodd"/>
 <path d="m114.337,7.302c.077-.661 7.235.16 4.8.48-1.63-.131-3.892.371-4.8-.48z" fill-rule="evenodd"/>
 <path d="m109.06 7.302c-3.437 1.434-5.511-0.536 0 0z" fill-rule="evenodd"/>
 <path d="m101.377,8.262c.06-1.06 2.036-.204 2.88-.48-.061,1.06-2.036.204-2.88.48z" fill-rule="evenodd"/>
 <path d="m123.46 7.782c-1.055 1.466-3.075-0.554 0 0z" fill-rule="evenodd"/>
 <path d="m111.937,14.022c36.786-1.003 66.596,35.495 54.24,73.92-6,18.66-25.315,36.538-48,38.88-21.387,2.208-39.787-7.396-49.44-19.2-7.973-9.75-14.275-23.69-12.96-41.76 1.073-14.739 8.456-27.979 17.28-36.48 9.119-8.784 22.875-14.924 38.88-15.36zm-39.84,18.24c-8.774,9.636-18.688,26.663-14.88,47.52 1.895,10.377 5.866,17.229 11.04,24 9.104,11.915 24.304,21.69 42.24,22.08 9.114.197 22.229-2.88 31.199-8.641 20.24-12.997 34.544-43.48 20.16-72.48-1.259-2.537-3.523-4.923-5.28-7.2-1.733-2.248-3.27-5.182-5.279-7.2-8.96-8.996-26.862-17.179-45.601-14.88-14.467,1.776-26.103,8.569-33.599,16.801z" fill-rule="evenodd"/>
 <path d="m52.896,21.222c2.301.169-1.025,1.438-.96,2.4 .82,5.955 4.432,15.068-2.88,15.84-3.218.34-7.779-3.542-3.84-7.68 2.348-.034-1.307,1.412.48,2.4 7.402.681 2.844-10.597 7.2-12.96z" fill-rule="evenodd"/>
 <path d="m36.577,37.542c-.776.889-3.788-2.696-4.32.48-2.448.295-3.475-1.779-3.36-2.88 .437-4.196 6.902-.753 7.68,2.4z" fill-rule="evenodd"/>
 <path d="m169.057,39.462c1.083-.738 3.548,1.234 3.36,3.36-.731,1.53-3.292-1.011-2.881.96-2.506-1.004 2.482-3.044-.479-4.32z" fill-rule="evenodd"/>
 <path d="m17.376,70.182c-1.073.207-.194,2.366-.48,3.36-.977.874-3.186,2.223-4.8.96 1.217-.766 2.931-2.84 1.44-4.8-.218,2.182-1.681,5.137-4.32,3.36 1.139-1.567 2.644-2.579 1.44-5.28 1.866-.947 3.917.488 5.76,1.92-1.013-2.021-1.672-9.64.96-12-2.455,1.064-4.183,2.857-3.84,6.72-2.031.48-1.617.067-1.92,1.92-1.463.023-2.444-.436-2.88-1.44-.145-1.961.665.081 1.92-.48 .513-1.793-1.192-1.368-.96-2.88 2.118-.122 2.529-1.951 4.32-2.4-3.85.26-11.049,1.243-10.08-5.76 1.073-1.949 5.745-2.048 6.24.48 .135,1.255-.175,2.065-1.44,1.92 .98,3.056 3.573,1.457 5.76.96 .832-.188 1.036.691 1.92.48 2.169-.517 4.653-2.087 6.24-2.88-.911-.849-3.074-.446-3.84-1.44-1.667.092-1.822,1.698-3.36,1.92-1.461.021-1.867-1.013-2.88-1.44 1.928-1.466-.723-2.365.48-3.84-4.676-1.551-4.736-11.357 3.36-9.12 .494,1.106 1.652,1.548 1.44,3.36-.847,1.553-4.55.25-4.8,2.4-.521,2.601 2.083,2.078 1.92,4.32 1.932-.469 1.684-3.116 1.92-5.28 1.45,1.11 1.284,3.837 1.92,5.76 2.693,2.587 7.218,3.342 12,3.84-.979,1.102-3.986.174-5.76.48-.44,2.04 1.15,2.05 2.88,1.92-.298,2.571-3.849,3.701-5.76,1.92-.405-2.005.933-2.267.96-3.84-6.511.565-9.98,14.005-.96,14.4 1.407-.033 1.783-1.098 2.4-1.92 5.199,4.086-6.145,8.072-7.2,2.4z" fill-rule="evenodd"/>
 <path d="m172.417,45.222c.774-.135.826.454 1.439.48 .145,1.265-.664,1.575-1.92,1.439-.203-1.002.33-1.27.481-1.919z" fill-rule="evenodd"/>
 <path d="m173.377,50.022c1.255-.135 2.064.175 1.92,1.44-.899.943-2.313.278-1.92-1.44z" fill-rule="evenodd"/>
 <path d="m49.537,62.982c1.124.123.276,2.109 0,2.4-1.124-.123-.277-2.109 0-2.4z" fill-rule="evenodd"/>
 <path d="m2.017,67.782c-.071,1.191-.089,2.33.96,2.4-5.388.521-2.979-7.589 3.36-5.76-.609,1.951-3.85,1.271-4.32,3.36z" fill-rule="evenodd"/>
 <path d="m174.337,64.902c1.055.556.207,7.145.479,10.08-1.054-.556-.207-7.145-.479-10.08z" fill-rule="evenodd"/>
 <path d="m177.217,65.382c.932-.19.701,2.187-.48,1.44v-.96c.408.088.452-.187.48-.48z" fill-rule="evenodd"/>
 <path d="m8.257,65.862c-.531,1.566-4.199,2.5-2.4,4.8-3.672,1.301-2.937-6.947 2.4-4.8z" fill-rule="evenodd"/>
 <path d="m51.457,87.462c-.824-1.576-1.271-3.53-1.44-5.76-1.729.168-2.313.734-3.84,0-.553-.567-.543-1.697-.48-2.88-2.385,3.94-10.208,3.655-9.6-2.88 1.56-3.081 6.847-2.433 9.6-4.32 .958-1.762.948-4.492 2.88-5.28-.403,4.237-.645,8.635-2.4,11.52 .054.92 1.607-.564 2.88,0v-5.28c.526,3.012 1.768,10.163 2.4,14.88z" fill-rule="evenodd"/>
 <path d="m49.057,66.822c.183-.914.611.307.48.96-.183.914-.611-.306-.48-.96z" fill-rule="evenodd"/>
 <path d="m9.697,66.822c-.065,2.335.591,5.392-1.92,5.28-1.284-1.791-1.516-5.711 1.92-5.28z" fill-rule="evenodd"/>
 <path d="m48.577,69.222c.553-1.553.543,1.289.48,1.92-.553,1.553-.544-1.289-.48-1.92z" fill-rule="evenodd"/>
 <path d="m178.177,69.222c.203,1.003-.329,1.271-.48,1.92-.447-.512-1.771-.149-1.439-1.439 .426-.374 1.083-.517 1.919-.481z" fill-rule="evenodd"/>
 <path d="m176.257,72.582c1.374-.095 2.619-.06 2.399,1.44-.926.934-2.937.502-2.399-1.44z" fill-rule="evenodd"/>
 <path d="m30.816,87.942c-4.675.191-7.729-5.388-12-7.2-2.046.05-1.683,2.794-1.92,3.36-4.562.328-5.668-4.31-3.84-7.68 9.585-3.379 10.302,9.651 17.76,11.52z" fill-rule="evenodd"/>
 <path d="m5.856,79.302c-.212-.698-.421.049-.96,0 .068,1.852 1.622,2.218 1.44,4.32h-2.4c-.413-.387-.285-1.315-.96-1.44 .125-1.475 1.042-2.158 1.44-3.36-.209-.712-.614.189-1.44,0-.357-1.478 1.317-.922.96-2.4 2.079-.062 1.182,2.847 3.36,1.44-.385,1.665.715,1.845.479,3.36-.427-.373-1.083-.516-1.92-.48 .103-.821-.817-1.243.001-1.44z" fill-rule="evenodd"/>
 <path d="m176.257,76.902c1.003-.203 1.271.329 1.92.48 .577,2.337-2.22,1.301-1.44,3.84-1.179-.429-1.301-3.358-.48-4.32z" fill-rule="evenodd"/>
 <path d="m9.697,78.342c1.613-.493.747,1.493.96,2.4-1.662.336-1.722-1.683-.96-2.4z" fill-rule="evenodd"/>
 <path d="m46.657,93.222c1.785-.185.888,2.312 2.4,2.4 4.782-2.838.042-10.26-2.88-11.52-1.392,6.061-1.828,14.954-7.68,15.36-5.458.379-7.245-8.452-.48-9.6 1.916-.027-1.479,3.392.96,4.32 4.275-1.484 5.835-5.685 6.24-11.04 3.24.547 4.424,3.025 5.76,4.8 .106.141.739-.701.96-.48 1.244,1.244.458,5.587 2.4,7.2-1.562,2.935-1.6,6.269-4.8,6.72-4.642.654-7.766-5.559-2.88-8.16z" fill-rule="evenodd"/>
 <path d="m176.736,83.142c1.36,2.361-.312,5.301-1.92,6.24-1.573-.613 3.426-3.773-.479-3.84-.11-1.71.69-2.51 2.399-2.4z" fill-rule="evenodd"/>
 <path d="m47.137,86.502c2.38.76.097,4.36 0,5.76-1.385-1.416.674-3.462 0-5.76z" fill-rule="evenodd"/>
 <path d="m175.776,91.782c.396,1.357-.676,1.244-.479,2.4-.861.061-1.013-.587-1.92-.479-2.585.88 1.338,5.419-1.44,6.239 .003-3.091-1.43-12.819 3.839-8.16z" fill-rule="evenodd"/>
 <path d="m23.137,94.182c-1.335,1.917-2.965,1.295-3.36,3.36-.617,3.226 3.224,5.673 6.72,5.76-5.917,1.063-12.133-3.572-11.04-9.6 2.179-2.064 5.922-1.522 7.68.48z" fill-rule="evenodd"/>
 <path d="m39.457,99.941c-2.299,2.276-5.145,4.586-8.64,4.32-6.771-.514-7.222-10.458.48-9.12-3.039,5.537 4.598,7.195 8.16,4.8z" fill-rule="evenodd"/>
 <path d="m42.336,98.502c-.16,3.342-8.195,8.527-3.84,13.439 1.968-.385-.25-1.976.96-2.88 7.077.841 3.849,9.396 0,9.601-6.257.331-6.019-10.506-2.88-14.4-3.644,1.381-6.875,6.762-3.84,10.561-3.566,3.023-6.664-.135-6.72-2.881-.096-4.695 7.053-7.539 11.04-8.159 1.435-2.088 3.862-3.179 5.28-5.281z" fill-rule="evenodd"/>
 <path d="m166.177,107.142c.853-1.387 2.905-1.574 2.88-3.84-.148-.651-1.202-.398-1.92-.479-.337-2.765 3.456-3.662 4.8-1.92 .335,4.335-2.07,5.93-5.76,6.239z" fill-rule="evenodd"/>
 <path d="m45.697,101.382c-.024,1.896-.984,2.856-2.88,2.88-1.855-2.008.871-4.735 2.88-2.88z" fill-rule="evenodd"/>
 <path d="m17.376,103.302c.55,1.51-.753,1.167-.96,1.92 .109,3.163 4.481,1.555 6.72,1.44-2.639,2.467-9.928,3.701-11.52-.48 .034-2.659 3.142-4.357 5.76-2.88z" fill-rule="evenodd"/>
 <path d="m30.816,104.742c-4.656,1.809-11.958,8.88-5.28,13.439 1.558.278 2.233-.326 3.36-.479 1.121,7.21-9.163,6.815-10.56,1.92-1.109-3.887 2.214-7.88 4.32-10.08 2.035-2.126 4.208-4.021 8.16-4.8z" fill-rule="evenodd"/>
 <path d="m167.137,109.542c.011,2.25.253,4.732-1.92,4.8-1.742.462-.403-2.156-1.92-1.92-3.021.499-2.274,4.766-3.36,7.2-.84-4.343 1.506-15.216 7.2-10.08z" fill-rule="evenodd"/>
 <path d="m80.257,128.262c-1.383-.057-3.143.263-3.84-.479-.083-2.036-1.987-4.138-1.44-5.28 2.419,1.26 4.393,2.966 5.28,5.759z" fill-rule="evenodd"/>
 <path d="m146.017,126.342c2.832,2.388.805,8.195-3.36,6.24v-2.4c-4.709-.709-4.364,3.636-7.199,4.8 2.333-4.066 3.44-9.358 10.559-8.64z" fill-rule="evenodd"/>
 <path d="m127.3 131.14c-1.055 1.466-3.074-0.554 0 0z" fill-rule="evenodd"/>
 <path d="m120.1 134.02c2.386 1.084 5.247 5.35 8.64 2.4 0.184-1.783-1.944-1.255-1.439-3.36 3.383-2.896 6.999-0.341 6.72 2.88-0.532 6.114-13.494 4.295-13.921-1.92z" fill-rule="evenodd"/>
 <path d="m101.38 132.58c2.345-1.272 3.619 1.589 0 0z" fill-rule="evenodd"/>
 <path d="m19.297,132.582c1.805.496-1.065,3.263-.96,5.28 .079,1.509 1.012,2.086 1.44,3.359 1.698.843 2.473-1.612 2.88-.479 .721.777.721,3.542 0,4.319-.909.852-3.17.351-4.8.48-3.999-3.479-.31-9.598 1.44-12.959z" fill-rule="evenodd"/>
 <path d="m106.177,133.542c1.61-1.109 5.271-.168 7.68-.48-1.611,1.109-5.272.168-7.68.48z" fill-rule="evenodd"/>
 <path d="m117.217,133.542c.013-.467.587-.373.96-.48 4.653,3.539 1.396,12.917-3.84,12.96-4.016.034-7.412-6.626-1.92-9.119 1.672-.232.537,2.342 1.92,2.399 2.434-.138 3.45-4.213 2.88-5.76z" fill-rule="evenodd"/>
 <path d="m115.297,137.382c-1.332-.108-1.358-1.522-2.4-1.92-3.282,1.558-5.906,3.604-4.32,8.16 1.251,3.594 3.864,6.747 2.881,10.08-1.704,5.769-11.413,2.601-7.681-4.32 1.531-.411 1.484.756 2.4.96 2.35-1.777.03-3.319 0-5.76-.062-5.062 2.354-10.079 5.76-10.08 .876,0 3.414.165 3.36,2.88z" fill-rule="evenodd"/>
 <path d="m40.417 139.3c-0.903 2.297-2.763 3.637-5.76 3.84 1.192-2.008 3.896-2.504 5.76-3.84z" fill-rule="evenodd"/>
 <path d="m125.856,146.981c-.308,2.479-2.743,6.374-6.72,6.721 1.428-2.252 4.054-3.307 4.8-6.24-.021-1.228.357-.585.96-.48-.396-2.803-3.186-3.214-2.88-6.72 2.487,3.969 2.038,1.749 6.72.96 .213.428.422.858.96.96 .312,1.752-.323,2.557-.96,3.36 .301,1.025 2.955.45 3.36,0 .369-1.81-.586-2.295-.48-3.84 4.532-1.799 7.276,2.554 5.28,6.239-3.667,2.04-8.155,1.266-11.04-.96z" fill-rule="evenodd"/>
 <path d="m103.776,142.662c1.029,1.37 2.381,2.419 1.92,5.279-.678.882-2.331-.752-3.359.48-2.604,1.945-1.1,6.359.479,8.16-4.684-1.534-8.072-14.61.96-13.919z" fill-rule="evenodd"/>
 <path d="m32.257,144.102c-5.566,2.32-11.819,12.151-4.8,17.28 2.005.405 2.267-.933 3.84-.96 2.593,11.75-16.178,9.638-11.521-3.84 1.855-5.365 6.253-10.108 12.481-12.48z" fill-rule="evenodd"/>
 <path d="m120.576,144.102c5.852,5.83-7.315,12.911-8.159,6.24-.269-2.115.982-2.092 1.92-3.84 1.801-.361 1.046,1.834 2.399,1.92 2.322-.399 3.746-1.693 3.84-4.32z" fill-rule="evenodd"/>
 <path d="m56.257,146.502c.109,1.71-.69,2.51-2.4,2.4-1.691-1.652.747-4.09 2.4-2.4z" fill-rule="evenodd"/>
 <path d="m83.617,150.342c2.15-.036-.292,1.778.48,3.36 2.789,5.408 12.153,2.093 12.96-2.88 1.023,2.952-2.672,5.321-4.8,6.72-1.81,4.431-5.374,7.105-4.32,14.399 .533,2.348 3.431,2.33 3.36,5.28-3.772,5.043-8.714-.756-8.16-7.2 .471-5.479 5.526-8.755 7.2-10.56-6.282,3.358-17.183-6.621-6.72-9.119z" fill-rule="evenodd"/>
 <path d="m76.417,156.582c-1.611.438-.238.893-.48,2.399-3.754.453-5.227-3.047-3.84-6.239 .558.078.854-.106.96-.48 6.41-.649 4.54,6.98 9.6,7.68-2.613,1.32-4.442-2.269-6.24-3.36z" fill-rule="evenodd"/>
 <path d="m112.896,153.702c2.875.133 4.213,1.841 4.32,3.84 .317,5.923-10.495,6.726-13.44,1.439 .276,9.27-3.104,19.349-12.96,15.36-1.429-2.128-1.727-5.223-.48-7.68 5.411,5.783 14.602.016 12.48-9.12 3.593,4.172 11.45,2.092 10.08-3.839z" fill-rule="evenodd"/>
 <path d="m95.137,158.981c-.304,1.795-.756,2.749.96,3.36 2.994-.307 5.051-3.224 3.84-6.24-.649.951-1.333,1.867-3.36,1.44-1.036-1.028-.245-2.682.48-3.36 1.814.105 2.331,1.509 3.84,1.92 4.949,9.251-10.68,15.454-10.08,6.721 .149-2.174 1.486-3.427 4.32-3.841z" fill-rule="evenodd"/>
 <path d="m18.336,170.981c-2.125.046-3.297-.862-2.88-3.359 1.067-1.111 1.872.163 3.36,0 1.352-.485-.132-2.039 0-2.88 2.416.727 1.601,5.854-.48,6.239z" fill-rule="evenodd"/>
 <path d="m49.057,166.182c1.999.768-.983,2.412-1.92,3.36-1.307,1.323-2.885,2.148-3.36,3.36 1.277.035 1.426,3.65 2.88,1.92 1.396.417.54.718.48,1.92h2.88c-.212,1.388-1.012,2.188-2.4,2.399-1.65-.109-2.092-1.428-2.4-2.88-1.36,1.846-4.601,2.613-6.24.48-2.101.861 4.38,11.805-1.92,12.479-1.125.121-1.399-.592-2.88-.96-.148-1.748.076-3.123.48-4.32 1.172-1.217 1.022,1.013 2.88.48 2.229-1.707-.2-4.611 0-7.2 1.436-1.515.86-3.341 1.92-4.8 2.326-3.201 7.296-2.998 9.6-6.238z" fill-rule="evenodd"/>
 <path d="m61.537 170.5c-2.784-3.744-9.136-1.261-9.12 3.36-6.978-6.94 7.826-11.03 9.12-3.36z" fill-rule="evenodd"/>
 <path d="m30.336,168.582c2.512.123 3.554,2.925 2.88,4.8-4.493,2.329-6.487-3.245-9.12-2.88 1.994-1.807 3.069,1.39 5.28.96 1.227-.054.953-1.608.96-2.88z" fill-rule="evenodd"/>
 <path d="m21.697,169.542c3.832,3.876 5.339,16.1-1.92,16.32-4.167.126-7.551-6.798-.96-8.641-.373,1.653.268,2.293 1.92,1.92 3.397-1.27 1.369-6.665.96-9.599z" fill-rule="evenodd"/>
 <path d="m50.497,176.262c.927-1.4 2.433-.396 3.36-.96-.21-1.65.19-2.69.48-3.84 2.15-1.895 6.328-.755 7.68.96-4.893-.413-4.732,4.228-8.16,5.28 .45,3.87 3.999,4.641 6.24,6.72 .145,1.265-.665,1.575-1.92,1.44-4.389-1.371-6.691-4.83-7.68-9.6z" fill-rule="evenodd"/>
 <path d="m25.057,171.462c6.285,6.18 4.411,29.553-7.2,20.64v-5.279c1.817-1.467 1.989,1.919 4.8.96 6.393-2.009 4.753-11.008 2.4-16.321z" fill-rule="evenodd"/>
 <path d="m63.457,174.342c.826,4.704-5.413,6.247-7.68,4.8 .884-3.276 3.552-4.768 7.68-4.8z" fill-rule="evenodd"/>
 <path d="m82.177,174.342c1.694,2.466 1.18,7.14 4.8,7.68 2.067.628 1.518-1.361 2.4-1.92 5.93,4.726-6.066,9.482-6.72,2.88-.239,6.03.12,15.685-6.24,15.841-4.096.101-7.726-6.75-2.4-9.601 .266.854.247,1.993.96,2.4 7.555-.97 6.5-10.729 7.2-17.28z" fill-rule="evenodd"/>
 <path d="m64.417 174.82c6.545 3.765-3.229 12.609-6.72 6.239 3.593-0.726 6.66-1.978 6.72-6.239z" fill-rule="evenodd"/>
 <path d="m67.297,176.262c2.482,1.104 3.609,5.355 2.4,8.641-1.421,1.897-8.232,3.484-8.64-.48 3.724.523 5.382-1.018 6.72-2.88 .354-2.275-.54-3.301-.48-5.281z" fill-rule="evenodd"/>
 <path d="m79.776,176.742c2.595,2.209-.146,9.742-3.36,10.56-1.42.361-2.093-.312-3.36-.479-1.94-2.593-1.472-6.479 1.44-7.681 1.742-.462.403,2.157 1.92,1.92 2.308-.253 3.105-2.016 3.36-4.32z" fill-rule="evenodd"/>
 <path d="m49.537,179.142c2.915,1.498-2.434,5.11-3.84,2.4-.385-2.464 3.481-.679 3.84-2.4z" fill-rule="evenodd"/>
 <path d="m52.896 182.5c-0.167 3.032-3.424 2.976-5.76 3.84-0.686-1.871 2.899-5.517 5.76-3.84z" fill-rule="evenodd"/>
 <path d="m54.816,184.902c-.986.773-1.113,2.406-.96,4.319-4.409.513-2.724-5.117.96-4.319z" fill-rule="evenodd"/>
 <path d="m57.217,185.862c1.357.755-1.084,2.57.48,3.359-1.263,1.386-3.522-.29-2.88-2.399 .913-.206 1.205-1.034 2.4-.96z" fill-rule="evenodd"/>
 <path d="m110.017,3.462c.686-2.089-1.641-2.207-.48-3.36 2.47-.39 3.773.387 4.801,1.44-.25,1.831-.876,3.285-1.92,4.32-5.485.845-7.401-1.879-10.08-3.84 .409-1.313 4.644,3.779 7.679,1.44z" fill-rule="evenodd"/>
 <path d="m125.856,2.502c1.462,4.781-5.177,6.541-5.76,2.4 .682.042 1.359.079 1.439-.48 .062-.861-.587-1.012-.479-1.92-3.448-.409-4.411,1.669-6.72,2.4 1.622-2.956 8.145-5.603 11.52-2.4z" fill-rule="evenodd"/>
 <path d="m143.616,15.462c.234-1.366 1.456-1.744 1.92-2.88-.992-2.758-3.554-1.212-5.76-1.44-6.175-.638-10.362-2.665-12-8.64 2.228,1.797 3.621,6.363 7.681,4.8 .234-1.515-.865-1.695-.48-3.36 3.562-.274 5.577,3.607 3.36,6.24 5.341-.394 11.89-1.208 11.52,5.28-.776.824-2.008,1.192-3.84.96 1.687,1.354 3.459,2.621 5.28,3.84 .691-.723-1.128-3.008-.48-5.28 1.204,1.197 1.362,3.438 2.4,4.8 1.64.36.609-1.95 2.399-1.44 .142.979 1.299.941 1.44,1.92-.212,1.388-1.012,2.188-2.4,2.4 1.628,2.053 3.349,4.012 5.28,5.76 .271-.589.011-1.489 1.44-1.92-.362-2.038-2.661-2.14-4.32-2.88 2.933-.844 6.469,1.845 7.2,4.8-.208,1.888-3.791.687-2.4,2.88-1.767-2.073-4.035-3.644-5.28-6.24-6.59-5.09-12.94-10.419-21.6-13.44-.857.135-.985-.454-.479-.48 2.976,1.024 6.236,1.763 8.159,3.84 .559-.078.855.106.96.48z" fill-rule="evenodd"/>
 <path d="m66.816,27.462c-.989-.13-.114-2.125-1.44-1.92-1.581,3.059-3.401,5.878-7.68,6.24 1.387-2.053 7.535-4.013 2.4-5.76-1.511,1.503.814,1.621.48,3.36-1.981,1.059-3.938-.014-5.76-.48 .931,2.749 3.117,4.243 3.36,7.68 2.263-.937 2.932-3.469 4.32-5.28-.714,3.77-5.514,7.603-6.72,12.48-1.131-.406.399-2.105.48-2.88-3.365,2.658-.176,3.333-1.92,6.72 8.896-19.781 25.946-35.265 48.96-38.88 4.386-.689 12.505-.765 17.76,0 32.343,4.709 58.425,34.742 51.84,73.92 .728-1.192.927-2.914.96-4.8 1.457,2.274-.912,4.834-.479,7.68-.562-.078-.405-.875-.48-1.44-2.551,5.868-4.432,11.804-7.68,17.28-10.188,17.174-29.874,32.967-59.04,30.72-5.151-.396-9.45-1.966-14.88-2.88 1.64,1.08 3.903,1.536 6.239,1.92-2.783,1.014-6.293-1.379-9.12-1.92-.386,3.433 8.085,2.15 8.64,6.24-1.685-.556-2.759-1.721-4.8-1.92-.179.942 4.129,3.708 6.24,2.399 1.479-.64-.895-2.134.479-2.88 2.304.097 4.062.738 6.24.96 2.495,5.731-4.169,9.375-8.641,6.721-1.379.8.525,2.31.96,2.88-.115,1.237-.825-.659-1.92,0 4.706,6.402-4.549,15.89-10.08,9.12 .207-1.554-.631-4.152.96-4.32-.407-.713-1.545-.694-2.4-.96-4.242-8.017 7.301-7.689 11.04-4.32 .271-4.599-13.188-7.72-13.44,0-2.913-.112-3.402-4.169-2.4-6.72 6.221-5.168 12.229,1.963 16.8,4.32-1.812-2.988-5.287-4.313-6.72-7.681-6.665-.627-13.125.564-11.52,6.721h-1.44c.132.987 1.788.451 1.92,1.439-.355,3.545-6.436,2.589-8.16.96 .072,4.044 7.179,4.722 9.12,2.4 5.266.478 2.249,6.795-1.44,7.2-5.17.567-9.983-6.528-9.6-10.561-2.817,4.383-8.557,5.844-9.12,12.48 3.631.75 2.391-3.369 5.28-3.36 2.188.245-.305,2.192.96,3.36 2.798.398 2.452-2.349 2.4-4.8-.393-1.527-3.17-.671-2.88-2.881 1.468.349 1.412-.828 2.88-.479 .164,2.876 2.009,4.07 4.32,4.8-.115,1.325-1.785,1.096-2.4,1.92 .709,1.851.953,4.167 1.44,6.24 1.491-.29 2.025,3.02 3.36,4.32 .386-.254.779-.501 1.44-.48 .978-.673-.472-1.653.48-2.88 3.476-.365 5.952,3.152 11.04,1.44-2.349,1.659-6.733,4.154-10.08,1.92-.997.123-.131,2.108-.96,2.399h-1.92c-2.231-.329-2.496-2.624-2.88-4.8-.918,2.282-.959,5.441-1.92,7.68 2.388.469.306-3.533 2.4-3.359 .718,3.217-3.396,8.477 1.44,8.64 .656-2.096-1.859-1.021-1.44-2.88 2.252-4.147 7.45-5.35 12.48-6.72-1.909,2.571-6.522,2.438-6.72,6.72 .445,2.184 3.006-.245 3.84.96 .139,2.06-.668,3.172-1.44,4.32-2.397-1.297-4.499,2.529-6.72,2.399-2.662-.154-4.536-2.237-4.32-6.72-.892-.859-2.251,1.886-2.88,2.88-2.129.049-2.595-1.565-2.88-3.36 5.037-.953 6.747-5.894 6.72-10.56-1.699,3.09-1.91,7.75-5.28,8.16-6.29.766-6.765-10.215.96-7.68 .656,2.096-1.858,1.021-1.44,2.88 4.343-.587 5.474-6.508 4.8-10.561-.409,2.261-3.308,6.235-5.76,3.36-1.71,2.603-5.066,5.053-9.6,3.359 .24,2.32 2.936,2.185 4.8,2.881-.271,3.678-2.919,2.129-5.76,2.88-3.09-3.163 1.8-7.002-.48-9.601-.606,4.675-1.667,8.893-5.28,10.561-2.671.431-3.431-1.05-4.8-1.92 1.354,3.419-1.763,6.219-3.84,6.239-6.181.063-4.601-9.869-2.4-14.88-1.131-.786-2.165,2.617-3.84,2.88-6.792,1.203-7.13-8.239-2.4-9.6 2.1.014-.54,2.026 1.44,2.4 4.567-.191 2.91-7.809.96-9.601 5.737,2.85 2.733,15.778 5.28,23.04 2.101-.163 2.858-3.37 4.8-.96-.772-1.544-.397-3.182.48-4.32 6.111,1.799 8.723-2.354 9.12-7.68 1.97-.22-.195,1.025.48,2.4 2.23-8.01 12.663-7.818 15.36-15.36 .817-.177.906.374.96.96 1.191-1.85-.386-6.466 2.4-6.72 .632,2.888 1.796,5.243 4.32,6.24 .405-.593-2.374-2.085-2.88-3.36-1.903-8.761 9.485-8.1 14.4-5.76-.275-3.369-4.047-4.045-6.24-5.28-6.795-3.827-12.629-9.009-17.76-14.88 1.544,3.848 5.08,7.888 3.36,13.439 2.348.268 1.146-3.014 1.44-4.8 9.246-.625 8.583,15.095-1.92,12.48 .789,1.538 1.605,1.225 3.36.96-.474,5.602-4.891,13.058-11.04,12.96-6.976-.11-8.055-8.81-2.4-12.96-1.553-1.167-2.967-2.473-3.36-4.8 .744-.536 1-1.561 2.4-1.44-2.668-.262-7.992-.782-6.72-4.8-1.231,1.166-2.447,3.268-1.44,5.28 2.089.685 2.207-1.641 3.36-.48 3.479,8.344-10.894,12.194-9.6,1.44 .439-3.652 4.458-5.151 4.8-8.16-4.669.577-12.959,6.39-9.6,13.439 2.434.708 2.97-2.069 4.32-.96 .56,2.562.224,3.957-.48,6.24-1.866.693-3.26,1.859-6.24,1.44-1.601-.96-2.481-2.64-3.84-3.841-1.069,1.491-1.595,3.525-3.36,4.32-1.515.235-1.695-.865-3.36-.479-5.645-10.195 5.788-17.168 13.92-19.681-4.822,3.178-10.587,5.413-11.04,12.96 .317,1.764 2.981,1.179 3.84,2.4-.66-8.349 3.449-12.06 9.12-14.88 .308-.153 1.082-.23 1.44-.48 .751-.523 1.431-1.168 3.36-1.92 1.8-.701 2.935-.945 3.84-3.84-3.152-1.197-6.436-9.395-.48-10.08-.258,1.698.407,2.473 1.44,2.88 5.045-.845 6.7-6.651 6.24-11.52 1.51,1.53 1.85,4.229 3.36,5.76-.269,1.391-.749-.736-1.44-.479 1.208,6.519-.192,14.068-7.68,13.439-.259,1.858 1.223,1.977 1.44,3.36 2.325-1.836 5.269-3.052 5.76-6.721 1.449,3.22-2.625,5.048-3.84,7.2 6.527.717 7.376-9.428 5.76-15.84 8.272,11.247 17.486,21.554 32.16,26.4-23.704-11.347-42.272-30.354-38.88-67.2-.654-.516-.841,1.63-2.88.48 .311-2.871-1.265-3.855-1.92-5.76 1.014,7.163-3.214,18.014-11.04,17.76-3.243-.105-7.811-3.64-5.76-9.6-2.201.245-3.539,4.154-7.2,3.84-4.677-.402-5.704-6.998.48-7.68 .728,1.032.816,2.703 1.92,3.36 4.034.389 4.033-3.273 5.76-5.76 .368-.529 1.273-.234 1.92-.96 1.459-1.636 2.421-4.735 3.84-5.76 1.917-1.384 3.486-1.406 7.2-1.44-1.613-1.428-3.52-2.561-6.24-2.88-1.965.494-1.311,2.542-.96,4.32-6.025,2.677-10.107-4.409-5.76-8.16 6.059-1.959 12.355,1.312 13.92,6.72h5.76c-2.766-.435-4.81-1.59-6.72-2.88 .078-1.519-1.276-1.604-.96-3.36-4.234-2.824-7.453-13.078-3.36-18.72 3.213-4.429 11.994-2.628 9.6,5.28-7.329-4.232-10.877,6.766-6.72,11.52 1.124-.156.466-2.094 1.44-2.4 1.741.019 1.542,1.977 2.88,2.4 6.558.292 9.522-3.567 9.12-9.6-.289-4.332-3.297-7.183-.96-10.08 2.494-3.092 7.491-.343 10.08,1.92 2.191-3.089 1.353-9.208 3.84-12 1.438-.801 3.858-.622 4.8-1.92 3.595-.312 7.72,2.917 9.6,0 .378-1.978-2.298-.901-1.92-2.88 3.034-4.573 9.072.584 5.76,4.32-2.713,3.062-9.343.792-12.48-.48 1.308,1.638 2.115,7.603-1.44,9.12-1.843.243-.317-2.883-1.92-2.88-3.104.735-3.042,4.638-3.84,7.68 2.003-.237 4.385-2.466 6.72-4.32 5.631-4.47 15.02-10.49 22.08-11.04-11.677,3.85-21.635,9.412-28.798,17.77zm23.52-14.4c-19.077,7.058-36.519,26.982-38.88,50.88-2.055,20.803 6.359,38.715 16.32,48.96 17.826,18.333 49.822,24.149 73.44,11.039 19.871-11.03 36.355-35.086 30.24-66.239-2.156-10.981-7.481-21.271-12-26.88-10.64-13.205-28.952-23.642-53.28-21.12-6.076.63-11.58,1.784-15.84,3.36zm-39.359,37.44c-1.694.066-2.146,1.374-3.84,1.44 2.024,1.815.768,6.912 2.88,8.64 .223-4.737 1.604-8.317 2.88-12-1.812.085-2.71.337-1.92,1.92zm.48,9.12c-.016-3.863 2.258-7.974 1.92-10.56-.715,3.131-3.235,6.997-1.92,10.56zm-21.121,2.88c1.045-2.445 1.671,1.166 1.92,2.4 6.856,4.398 14.102-2.442 11.52-10.56-.142-1.262 1.862-.378 1.44-1.92-3.562.438-7.562.438-7.2,4.8 2.38.62 2.358-1.162 4.32-.96 2.824,6.55-6.451,10.628-9.6,5.76-.37-1.229-.479-2.721-1.439-3.36 .048,1.36-1.903,3.174-.961,3.84zm47.04,111.36c1.559-1.455-2.98-3.882-3.36-1.921 2.345-.584 2.748.774 3.36,1.921zm-17.279-63.36c.115-.736.791-.07.96.479 1.869,2.81 1.288,8.271 3.36,10.08 .208-8.183-2.562-11.338-5.28-15.84-.029,2.109.193,3.968.96,5.281zm-2.88,13.92c.908,1.012 2.359,1.48 3.84,1.92-2.138-3.638.705-11.738-.96-13.92 .463,5.423-1.264,8.657-2.88,12zm-8.16-3.84c1.091.085 2.797-1.621 1.92-1.92-.541.738-1.379,1.181-1.92,1.92zm7.2,12c.598,5.919 8.147,2.337 8.16-1.92-.614-.026-.665-.615-1.44-.48-.772,2.268-3.563,2.517-6.72,2.4zm31.2,15.359c1.357.397 1.244-.676 2.4-.479 .412-1.531-.755-1.484-.96-2.4 1.004-.276 1.37-1.189 2.88-.96 .163,1.488-1.111,2.294 0,3.36 2.653.732 1.71-2.131 3.84-1.92 .055-2.897-5.637-3.103-7.2-1.44-.685,2.09 1.641,2.207.48,3.36-.565.075-1.363-.083-1.44.479z" fill-rule="evenodd"/>
 <path d="m23.137,126.342c.093,3.793-9.491,10.419-12,3.36 .863-2.177 2.292-3.788 5.28-3.84-.288,1.778-.79,2.782.48,3.84 3.174-.025 4.998-1.401 6.24-3.36z" fill-rule="evenodd"/>
 <path d="m154.177,117.222h2.88c6.086,5.988-4.734,12.026-11.04,8.641 2.996-1.005 8.184.184 8.64-3.36 .045-1.484-1.449-1.431-2.88-1.44-.074-1.193.754-1.485.96-2.399-.821-.021-1.243.356-1.439.96-.878-.299.829-2.006 1.92-1.92 8.473-8.327 15.359-18.24 19.2-31.2-2.277,12.122-10.168,22.791-18.241,30.718z" fill-rule="evenodd"/>
 <path d="m164.257,34.662c.63.169.755.845 1.439.96-.92-1.16-.303-3.857-.479-5.76 1.313.766.536,3.624 1.439,4.8 1.469.348 1.412-.828 2.88-.48 .65,1.417.602,2.972-.479,3.84-1.461.021-1.866-1.014-2.88-1.44-.296,2.056 1.562,1.957 1.439,3.84-1.387-1.653-2.838-3.242-3.359-5.76z" fill-rule="evenodd"/>
 <path d="m77.856 23.622c6.065-4.486 14.032-8.709 21.601-10.56 20.326-4.972 41.929 3.049 53.76 14.88 11.501 11.501 21.545 34.453 15.84 56.64-2.511 9.764-8.64 20.008-14.88 26.399-9.767 10.005-24.903 19.015-45.601 17.761-31.587-1.915-56.719-28.456-54.72-61.44 1.112-18.331 9.951-33.29 24-43.68zm-21.599 31.68c-8.746 32.986 13.019 62.982 38.88 70.561 7.579 2.22 15.88 2.665 23.52 1.92 26.734-2.609 48.764-25.779 50.88-52.32 1.585-19.863-5.833-34.38-14.88-44.64-9.761-11.069-29.269-21.569-51.84-17.76-17.866 3.015-31.878 14.5-39.84 26.88-2.892 4.495-5.701 11.512-6.72 15.359z" fill-rule="evenodd"/>
 <path d="m57.217,15.942c-1.594.327-.538,3.302-1.92,3.84-6.309,1.375-6.832-6.212-1.92-7.2 5.546-1.115 9.012,5.528 10.56,8.16-1.816-.114-2.424-5.57-6.72-4.8z" fill-rule="evenodd"/>
 <path d="m26.977,50.022c-4.941,1.868-8.105-1.879-8.16-4.8-.138-7.341 14.688-8.55 17.76-3.84-5.506-4.302-14.618,2.484-9.6,8.64z" fill-rule="evenodd"/>
 <path d="m3.937,72.582c2.433,1.087 5.254,1.785 7.68,2.88-.373.427-.516,1.084-.48,1.92-2.832-.368-5.468-.933-7.2-2.4 .022,1.808-4.01,4.112-3.84.48 2.644.404 3.987-.493 3.84-2.88z" fill-rule="evenodd"/>
 <path d="m35.137,75.942c.523,2.177-1.531,3.545-.48,5.76 1.619,3.411 6.723,2.992 9.6.479-.415.343-2.475,4.73-5.28,5.76-5.691,2.089-13.079-1.53-10.56-9.12 1.914-1.285 3.24-3.158 6.72-2.879z" fill-rule="evenodd"/>
 <path d="m149.856,120.102c.939.145-4.859,3.764-1.439.96 .46-.377.884-.688 1.439-.96z" fill-rule="evenodd"/>
 <path d="m140.257,126.342c-.352.448-.873.728-1.44.96-1.207-.206.798-1.034 1.44-.96z" fill-rule="evenodd"/>
 <path d="m137.86 127.3c-1.174 1.227-2.778 2.021-4.8 2.4 1.328-1.073 2.932-1.868 4.8-2.4z" fill-rule="evenodd"/>
 <path d="m132.576,129.702c-.406.713-1.545.694-2.399.96-1.099-.373 1.496-1.009 2.399-.96z" fill-rule="evenodd"/>
 <path d="m143.616,139.302c-1.051,1.35-1.915,2.885-4.319,2.88-.011-1.131.826-1.413.479-2.88-.854-.613-4.479-.925-5.279,0 .231-2.191 8.255-4.661 9.119,0z" fill-rule="evenodd"/>
 <path d="m31.297 140.26c-1.658-3.659 2.281 3.036 0 0z" fill-rule="evenodd"/>
 <path d="m105.217,163.782c3.087,1.174 5.491,17.352-2.88,14.399-.741-1.656-1.495-4.22-.48-6.24 1.665-.385 1.846.716 3.36.48 .572-1.999.958-6.705 0-8.639z" fill-rule="evenodd"/>
 <path d="m82.177,166.662c.502.073-.226,2.937-1.44,2.88-.418-1.857 1.172-1.708 1.44-2.88z" fill-rule="evenodd"/>
 <path d="m100.896,180.102c1.889-.769.167,2.073 1.44,1.92 7.682.768 9.665-8.964 6.72-14.399 .654-1.467 1.72,1.637 1.92,2.399 2.235,8.533-2.464,22.457-11.04,15.841-.457-1.956-1.042-5.057.96-5.761z" fill-rule="evenodd"/>
 <path d="m36.097,190.662c1.088-.532-2.592,1.671-2.88,2.88-.747,1.706 1.63.29 1.44,1.439 .061.861-.588,1.013-.48,1.921-1.833.231-3.064-.137-3.84-.961-.409-4.087 3.044-4.315 5.76-5.279z" fill-rule="evenodd"/>
 <path d="m46.657,142.182c.516,1.244 1.735,1.785 1.92,3.36 1.635.355.791-1.769 1.92-1.92 1.457-.177.997,1.563 1.44,2.399-.271,1.169-.411,2.47-1.92,2.4 4.615,11.273-15.119,13.515-12.48,2.4 1.693.387 1.631,2.528 3.84,2.399 1.808.208 2.186-1.014 2.88-1.92-6.48,3.627-8.33-10.125-1.92-11.04-.125-2.114-1.655-2.824-1.44-5.28 1.742,1.139 1.654,4.106 3.36,5.28 .391-4.209 8.365-4.667 7.2-12 2.656,5.177-.661,12.374-4.8,13.922zm-1.44,4.799c.134-1.094-.116-1.804-.96-1.92 .109.851-.484,2.405.96,1.92z" fill-rule="evenodd"/>
</svg>
